# xmcd
#
# Track frame offsets:
#	150
#	13437
#	26100
#	36737
#	51037
#	61700
#	73625
#	86937
#	100300
#	110437
#
# Disc length: 1631 seconds
#
# Revision: 1
# Processed by: cddbd v1.5.1PL0 Copyright (c) Steve Scherf et al.
# Submitted via: audiograbber 1.83.01
#
DISCID=8f065d0a
DTITLE=Lynn Anderson - Pure Country
DYEAR=1998
DGENRE=Country
TTITLE0=Rose Garden
TTITLE1=How Can I Unlove You
TTITLE2=Sing About Love
TTITLE3=Cry
TTITLE4=Fool Me
TTITLE5=You're My Man
TTITLE6=Keep In Me In Mind
TTITLE7=Top Of The World
TTITLE8=What A Man, My Man Is
TTITLE9=Talkin' To The Wall
EXTD=
EXTT0=
EXTT1=
EXTT2=
EXTT3=
EXTT4=
EXTT5=
EXTT6=
EXTT7=
EXTT8=
EXTT9=
PLAYORDER=
